<svg id="Group_76" data-name="Group 76" xmlns="http://www.w3.org/2000/svg" width="18" height="18" viewBox="0 0 18 18">
  <path id="Path_45" data-name="Path 45" d="M0,0H18V18H0Z" fill="none"/>
  <path id="Path_46" data-name="Path 46" d="M5.74,13.221h7.481v3.74H5.74Zm8.977,2.244v-3.74H4.244v3.74h-1.5A.748.748,0,0,1,2,14.718V7.237a.748.748,0,0,1,.748-.748H16.214a.748.748,0,0,1,.748.748v7.481a.748.748,0,0,1-.748.748ZM4.244,7.985v1.5H6.489v-1.5ZM5.74,2h7.481a.748.748,0,0,1,.748.748V4.992H4.992V2.748A.748.748,0,0,1,5.74,2Z" transform="translate(-0.481 -0.481)" fill="#909599"/>
</svg>
