<svg xmlns="http://www.w3.org/2000/svg" width="166.522" height="40" viewBox="0 0 166.522 40">
  <g id="Group_2" data-name="Group 2" transform="translate(-85.572 -49.189)">
    <g id="bRV25U.tif" transform="translate(85.572 57.688)">
      <g id="Group_1" data-name="Group 1">
        <path id="Path_1" data-name="Path 1" d="M382.85,202.488h2.693v.369c0,3.706-.016,7.412.007,11.117a4.1,4.1,0,0,0,2.437,3.839,2.041,2.041,0,0,0,.23.082v-15.4h2.708v15.7h2.961l-.093-.328a11.38,11.38,0,0,1,2.742-11.66,11.113,11.113,0,0,1,12.254-3.037,11.239,11.239,0,0,1,7.967,9.63,11.716,11.716,0,0,1-8.944,13,12.833,12.833,0,0,1-2.77.327c-3.29.038-6.582.031-9.872.01a6.776,6.776,0,0,1-5.646-2.884,6.348,6.348,0,0,1-1.061-2.234.344.344,0,0,0-.287-.291,6.879,6.879,0,0,1-5.335-6.735c-.024-3.753-.006-7.506-.005-11.259C382.836,202.655,382.844,202.581,382.85,202.488Zm30.6,11.852a8.457,8.457,0,1,0-8.465,8.461A8.473,8.473,0,0,0,413.453,214.339Z" transform="translate(-382.828 -202.466)" fill="#28c358"/>
        <path id="Path_2" data-name="Path 2" d="M678.111,321.669A5.777,5.777,0,1,1,683.9,315.9,5.782,5.782,0,0,1,678.111,321.669Zm-2.128-5.817a2.167,2.167,0,1,0,2.184-2.171A2.176,2.176,0,0,0,675.983,315.851Z" transform="translate(-655.941 -304.023)" fill="#28c358"/>
      </g>
    </g>
    <text id="Lokokino" transform="translate(125.094 79.189)" fill="#fff" font-size="29" font-family="Poppins-Medium, Poppins" font-weight="500"><tspan x="0" y="0">Lokokino</tspan></text>
  </g>
</svg>
