<svg id="Group_11" data-name="Group 11" xmlns="http://www.w3.org/2000/svg" width="24" height="24" viewBox="0 0 24 24">
  <path id="Path_17" data-name="Path 17" d="M0,0H24V24H0Z" fill="none"/>
  <path id="Path_18" data-name="Path 18" d="M7.39,16.539a8,8,0,1,1,9.221,0l2.083,4.76a.5.5,0,0,1-.459.7H5.765a.5.5,0,0,1-.459-.7l2.083-4.761Zm6.735-.693,1.332-.941a6,6,0,1,0-6.913,0l1.331.941L8.058,20h7.884l-1.817-4.154ZM8.119,10.97l1.94-.485a2,2,0,0,0,3.882,0l1.94.485a4,4,0,0,1-7.762,0Z" fill="#909599"/>
</svg>
